<svg xmlns="http://www.w3.org/2000/svg" xmlns:xlink="http://www.w3.org/1999/xlink" width="292" height="89.494" viewBox="0 0 292 89.494">
  <defs>
    <linearGradient id="linear-gradient" x1="0.034" y1="0.394" x2="1.176" y2="0.653" gradientUnits="objectBoundingBox">
      <stop offset="0" stop-color="#eb6513"/>
      <stop offset="1" stop-color="#fa890a"/>
    </linearGradient>
    <linearGradient id="linear-gradient-2" x1="-0.104" y1="0.78" x2="0.462" y2="0.411" xlink:href="#linear-gradient"/>
  </defs>
  <g transform="translate(-290 -101)">
    <text transform="translate(290 148)" fill="#262d95" font-size="48" font-family="Lato-Black, Lato" font-weight="800"><tspan x="0" y="0">AlayaCare</tspan><tspan y="0" fill="#f76f2b">EX</tspan></text>
    <text transform="translate(333 175)" fill="#333" font-size="16" font-family="Lato-Regular, Lato"><tspan x="0" y="0">Powered by</tspan></text>
    <g transform="translate(420.801 159)">
      <g transform="translate(0 0)">
        <path d="M287.816,139.117v0Z" transform="translate(-248.53 -120.129)" fill="#fff"/>
        <g transform="translate(0.565 3.069)">
          <g>
            <path d="M4.143,34.543,5.609,22.484h2.5l-.589,4.8a3.875,3.875,0,0,1,1.208-.926,3.064,3.064,0,0,1,1.313-.3,2.194,2.194,0,0,1,.866.169,1.835,1.835,0,0,1,.681.5,2.378,2.378,0,0,1,.443.8,3.411,3.411,0,0,1,.161,1.1q0,.145-.012.3t-.028.314l-.628,5.309h-2.5l.628-5.309q.016-.129.024-.238t.008-.2a.909.909,0,0,0-.153-.6.588.588,0,0,0-.459-.169,1.1,1.1,0,0,0-.524.149,2.092,2.092,0,0,0-.528.423,3.6,3.6,0,0,0-.475.661,4.178,4.178,0,0,0-.366.862l-.54,4.431Z" transform="translate(-4.143 -22.484)" fill="#0073b6"/>
            <path d="M69.779,57.3a3.62,3.62,0,0,1-1.309-.234,2.988,2.988,0,0,1-1.055-.681,3.135,3.135,0,0,1-.7-1.1,4.17,4.17,0,0,1-.254-1.51,5.523,5.523,0,0,1,.366-2.042,5.133,5.133,0,0,1,.987-1.607,4.5,4.5,0,0,1,1.438-1.055,4.046,4.046,0,0,1,1.72-.378,3.589,3.589,0,0,1,1.305.234,3,3,0,0,1,1.051.681,3.182,3.182,0,0,1,.7,1.1,4.113,4.113,0,0,1,.258,1.51,5.479,5.479,0,0,1-.367,2.026,5.187,5.187,0,0,1-.987,1.611A4.523,4.523,0,0,1,71.5,56.917,4.012,4.012,0,0,1,69.779,57.3ZM70,55.447a1.2,1.2,0,0,0,.749-.254,2.056,2.056,0,0,0,.56-.693,4.01,4.01,0,0,0,.355-1.024,5.944,5.944,0,0,0,.125-1.245,2.559,2.559,0,0,0-.246-1.3.875.875,0,0,0-.8-.391,1.2,1.2,0,0,0-.749.254,2.066,2.066,0,0,0-.56.689,3.939,3.939,0,0,0-.355,1.024,5.993,5.993,0,0,0-.125,1.248,2.566,2.566,0,0,0,.246,1.293A.869.869,0,0,0,70,55.447Z" transform="translate(-57.954 -45.112)" fill="#0073b6"/>
            <path d="M125.364,57.168l1.015-8.353h1.289a.916.916,0,0,1,.6.181.729.729,0,0,1,.217.592v.491a3.88,3.88,0,0,1,1.119-1.051,2.414,2.414,0,0,1,1.233-.342,1.61,1.61,0,0,1,1.176.459,2.281,2.281,0,0,1,.6,1.338,4.135,4.135,0,0,1,1.216-1.362,2.65,2.65,0,0,1,1.49-.435,2.123,2.123,0,0,1,.85.165,1.742,1.742,0,0,1,.653.487,2.308,2.308,0,0,1,.419.789,3.556,3.556,0,0,1,.149,1.079q0,.153-.012.318t-.028.334l-.628,5.309h-2.465l.628-5.309q.016-.136.024-.25t.008-.217a.944.944,0,0,0-.129-.572.465.465,0,0,0-.387-.161.944.944,0,0,0-.479.133,1.6,1.6,0,0,0-.435.387,3.013,3.013,0,0,0-.375.612,5.432,5.432,0,0,0-.3.8l-.539,4.575h-2.465l.628-5.309q.016-.136.024-.25t.008-.217a.943.943,0,0,0-.129-.572.465.465,0,0,0-.387-.161.943.943,0,0,0-.483.136,1.612,1.612,0,0,0-.439.395,3.051,3.051,0,0,0-.375.624,5.651,5.651,0,0,0-.3.818l-.548,4.535Z" transform="translate(-108.818 -45.109)" fill="#0073b6"/>
            <path d="M224.759,50.973a2.412,2.412,0,0,1-.226,1.047,2.111,2.111,0,0,1-.785.842,5.329,5.329,0,0,1-1.506.625,15.028,15.028,0,0,1-2.38.4,1.874,1.874,0,0,0,.375,1.248,1.36,1.36,0,0,0,1.059.395,2.536,2.536,0,0,0,.572-.056,1.983,1.983,0,0,0,.423-.145,2.815,2.815,0,0,0,.326-.185l.278-.185a1.449,1.449,0,0,1,.278-.145.905.905,0,0,1,.33-.056.489.489,0,0,1,.234.06.758.758,0,0,1,.2.157l.645.749a8.794,8.794,0,0,1-.866.753,4.73,4.73,0,0,1-.87.524,4.137,4.137,0,0,1-.951.3,5.845,5.845,0,0,1-1.1.1,3.562,3.562,0,0,1-1.361-.254,3.088,3.088,0,0,1-1.067-.717,3.215,3.215,0,0,1-.693-1.116,4.084,4.084,0,0,1-.246-1.45,5.7,5.7,0,0,1,.149-1.305,5.5,5.5,0,0,1,.427-1.2,5,5,0,0,1,.681-1.031,4.459,4.459,0,0,1,.906-.81A4.268,4.268,0,0,1,220.7,49a4.223,4.223,0,0,1,1.277-.189A3.393,3.393,0,0,1,223.16,49a2.792,2.792,0,0,1,.874.5,2.176,2.176,0,0,1,.54.7A1.777,1.777,0,0,1,224.759,50.973Zm-2.932-.483a1.452,1.452,0,0,0-1.088.5,3.136,3.136,0,0,0-.7,1.357,11.682,11.682,0,0,0,1.265-.254,3.158,3.158,0,0,0,.749-.29.9.9,0,0,0,.358-.338.847.847,0,0,0,.093-.391.593.593,0,0,0-.161-.395.65.65,0,0,0-.516-.185Z" transform="translate(-188.317 -45.214)" fill="#0073b6"/>
            <path d="M298.4,56.551a3.611,3.611,0,0,1-.765.491,3.505,3.505,0,0,1-.842.27,5.324,5.324,0,0,1-.987.085,3.348,3.348,0,0,1-1.321-.25,2.813,2.813,0,0,1-1-.709,3.184,3.184,0,0,1-.64-1.112,4.467,4.467,0,0,1-.225-1.466,5.629,5.629,0,0,1,.334-1.941,5.093,5.093,0,0,1,.934-1.611,4.511,4.511,0,0,1,1.422-1.1,4.011,4.011,0,0,1,1.8-.407,3.318,3.318,0,0,1,1.438.285,3.01,3.01,0,0,1,1.075.9l-.805.926a1.059,1.059,0,0,1-.2.157.471.471,0,0,1-.25.068.5.5,0,0,1-.27-.068q-.109-.068-.238-.145a1.947,1.947,0,0,0-.314-.145,1.422,1.422,0,0,0-.483-.068,1.37,1.37,0,0,0-.721.213,2.061,2.061,0,0,0-.624.616,3.375,3.375,0,0,0-.439.991,4.95,4.95,0,0,0-.165,1.338,2.459,2.459,0,0,0,.1.729,1.506,1.506,0,0,0,.266.516,1.12,1.12,0,0,0,.395.31,1.133,1.133,0,0,0,.483.1,1.515,1.515,0,0,0,.624-.109,2.421,2.421,0,0,0,.415-.237l.33-.238a.623.623,0,0,1,.371-.109.544.544,0,0,1,.238.056.586.586,0,0,1,.2.153l.644.757A7.619,7.619,0,0,1,298.4,56.551Z" transform="translate(-253.241 -45.209)" fill="#0073b6"/>
            <path d="M348.232,57.175h-1.338a1.1,1.1,0,0,1-.391-.06.625.625,0,0,1-.25-.165.583.583,0,0,1-.129-.25,1.29,1.29,0,0,1-.036-.314v-.6a4.3,4.3,0,0,1-1.144,1.112,2.515,2.515,0,0,1-1.386.4,2.168,2.168,0,0,1-.87-.181,2.08,2.08,0,0,1-.741-.548,2.728,2.728,0,0,1-.516-.935,4.17,4.17,0,0,1-.193-1.341,5.658,5.658,0,0,1,.415-2.155,5.506,5.506,0,0,1,1.16-1.784,5.584,5.584,0,0,1,1.768-1.216,5.508,5.508,0,0,1,2.247-.45,9.277,9.277,0,0,1,1.208.081,6,6,0,0,1,1.208.29Zm-3.673-1.845a.846.846,0,0,0,.532-.2,2.32,2.32,0,0,0,.487-.56,4.97,4.97,0,0,0,.423-.83,7.755,7.755,0,0,0,.33-1.015l.29-2.312h-.145a2.3,2.3,0,0,0-1.116.274,2.732,2.732,0,0,0-.866.745,3.518,3.518,0,0,0-.56,1.1,4.4,4.4,0,0,0-.2,1.333,3.114,3.114,0,0,0,.064.685,1.478,1.478,0,0,0,.173.455.7.7,0,0,0,.258.254A.675.675,0,0,0,344.559,55.33Z" transform="translate(-295.228 -45.116)" fill="#0073b6"/>
            <path d="M401.681,57.682l1.015-8.353h1.289a.916.916,0,0,1,.6.181.729.729,0,0,1,.217.592v.951a4.576,4.576,0,0,1,1.047-1.313,1.832,1.832,0,0,1,1.168-.459,1.58,1.58,0,0,1,.669.153l-.45,2.312a1.975,1.975,0,0,0-.781-.177,1.42,1.42,0,0,0-1.1.56,4.382,4.382,0,0,0-.778,1.8l-.451,3.754Z" transform="translate(-347.42 -45.623)" fill="#0073b6"/>
            <path d="M448.9,50.97a2.412,2.412,0,0,1-.226,1.047,2.111,2.111,0,0,1-.785.842,5.329,5.329,0,0,1-1.506.625,15.028,15.028,0,0,1-2.381.4,1.874,1.874,0,0,0,.375,1.248,1.36,1.36,0,0,0,1.059.395,2.536,2.536,0,0,0,.572-.056,1.983,1.983,0,0,0,.423-.145,2.814,2.814,0,0,0,.326-.185l.278-.185a1.448,1.448,0,0,1,.278-.145.906.906,0,0,1,.33-.056.489.489,0,0,1,.234.06.757.757,0,0,1,.2.157l.645.749a8.789,8.789,0,0,1-.866.753,4.727,4.727,0,0,1-.87.524,4.137,4.137,0,0,1-.951.3,5.845,5.845,0,0,1-1.1.1,3.562,3.562,0,0,1-1.361-.254,3.088,3.088,0,0,1-1.067-.717,3.215,3.215,0,0,1-.693-1.116,4.085,4.085,0,0,1-.246-1.45,5.7,5.7,0,0,1,.149-1.305,5.5,5.5,0,0,1,.427-1.2,5,5,0,0,1,.681-1.031,4.459,4.459,0,0,1,.906-.81,4.269,4.269,0,0,1,1.1-.528,4.223,4.223,0,0,1,1.277-.189,3.393,3.393,0,0,1,1.188.193,2.792,2.792,0,0,1,.874.5,2.176,2.176,0,0,1,.54.7,1.778,1.778,0,0,1,.186.774Zm-2.933-.483a1.452,1.452,0,0,0-1.088.5,3.137,3.137,0,0,0-.7,1.357,11.681,11.681,0,0,0,1.265-.254,3.158,3.158,0,0,0,.749-.29.9.9,0,0,0,.358-.338.848.848,0,0,0,.093-.391.593.593,0,0,0-.161-.395A.65.65,0,0,0,445.972,50.486Z" transform="translate(-381.868 -45.21)" fill="#0073b6"/>
          </g>
          <g id="Group_1319" data-name="Group 1319" transform="translate(79.272)">
            <path d="M584.92,61.677l1.587-12.86H587.8a.916.916,0,0,1,.6.181.73.73,0,0,1,.217.592v.757a4.76,4.76,0,0,1,1.273-1.216,2.755,2.755,0,0,1,1.5-.443,2.388,2.388,0,0,1,.943.181,1.878,1.878,0,0,1,.737.568,2.8,2.8,0,0,1,.483.987,5.2,5.2,0,0,1,.173,1.43,6.447,6.447,0,0,1-.334,2.082,6.142,6.142,0,0,1-.9,1.736,4.528,4.528,0,0,1-1.3,1.188,2.97,2.97,0,0,1-1.542.439,2.436,2.436,0,0,1-.935-.169,2.5,2.5,0,0,1-.725-.45l-.636,5Zm5.469-11.1a.949.949,0,0,0-.54.2,2.511,2.511,0,0,0-.544.54,4.991,4.991,0,0,0-.491.8,5.876,5.876,0,0,0-.382.983l-.25,2.014a1.467,1.467,0,0,0,.52.266,2.005,2.005,0,0,0,.544.081,1.264,1.264,0,0,0,.8-.29,2.556,2.556,0,0,0,.632-.761,4.251,4.251,0,0,0,.415-1.075,5.123,5.123,0,0,0,.149-1.232,2.209,2.209,0,0,0-.234-1.16.71.71,0,0,0-.621-.362Z" transform="translate(-584.92 -45.111)" fill="#0073b6"/>
            <path d="M655.6,49.623l-.628,5.3q-.016.129-.024.238t-.008.2a.911.911,0,0,0,.149.6.564.564,0,0,0,.447.169,1.119,1.119,0,0,0,.528-.149,2.158,2.158,0,0,0,.536-.419,3.38,3.38,0,0,0,.479-.657,4.184,4.184,0,0,0,.367-.862l.54-4.422h2.5l-1.015,8.353H658.2q-.886,0-.886-.822v-.532a4.147,4.147,0,0,1-1.3,1.119,3.071,3.071,0,0,1-1.442.363,2.136,2.136,0,0,1-.858-.169,1.886,1.886,0,0,1-.677-.5,2.284,2.284,0,0,1-.443-.805,3.528,3.528,0,0,1-.157-1.1q0-.145.012-.3t.028-.314l.628-5.3Z" transform="translate(-643.222 -45.917)" fill="#0073b6"/>
            <path d="M713.514,34.543l1.466-12.059h2.465l-1.466,12.059Z" transform="translate(-695.962 -22.484)" fill="#0073b6"/>
            <path d="M744.016,50.576a.954.954,0,0,1-.209.21.457.457,0,0,1-.258.064.752.752,0,0,1-.318-.072q-.157-.072-.338-.165a2.7,2.7,0,0,0-.411-.165,1.756,1.756,0,0,0-.528-.072,1.18,1.18,0,0,0-.793.213.708.708,0,0,0-.238.552.546.546,0,0,0,.133.371,1.281,1.281,0,0,0,.35.274,3.412,3.412,0,0,0,.5.221q.278.1.568.226a5.388,5.388,0,0,1,.568.286,2.141,2.141,0,0,1,.5.395,1.834,1.834,0,0,1,.35.556,2,2,0,0,1,.133.765,2.886,2.886,0,0,1-.249,1.188,2.837,2.837,0,0,1-.717.975,3.522,3.522,0,0,1-1.132.661,4.289,4.289,0,0,1-1.494.246,3.83,3.83,0,0,1-.782-.081,4.345,4.345,0,0,1-.729-.218,3.335,3.335,0,0,1-.624-.326,2.08,2.08,0,0,1-.459-.407l.612-.918a.9.9,0,0,1,.262-.254.683.683,0,0,1,.367-.093.611.611,0,0,1,.346.1l.314.21a2.338,2.338,0,0,0,.4.209,1.624,1.624,0,0,0,.612.1,1.132,1.132,0,0,0,.789-.238.738.738,0,0,0,.258-.56.624.624,0,0,0-.133-.411,1.157,1.157,0,0,0-.35-.278,3.23,3.23,0,0,0-.491-.209q-.274-.093-.564-.2a4.86,4.86,0,0,1-.564-.262,2.018,2.018,0,0,1-.491-.375,1.706,1.706,0,0,1-.35-.556,2.135,2.135,0,0,1-.133-.8,3.081,3.081,0,0,1,.214-1.128,2.8,2.8,0,0,1,.636-.971,3.163,3.163,0,0,1,1.051-.681,3.844,3.844,0,0,1,1.466-.258,3.665,3.665,0,0,1,1.494.29,3.615,3.615,0,0,1,1.083.709Z" transform="translate(-716.958 -45.114)" fill="#0073b6"/>
            <path d="M793.313,50.972a2.413,2.413,0,0,1-.226,1.047,2.111,2.111,0,0,1-.785.842,5.328,5.328,0,0,1-1.506.625,15.028,15.028,0,0,1-2.38.4,1.874,1.874,0,0,0,.375,1.249,1.36,1.36,0,0,0,1.059.395,2.536,2.536,0,0,0,.572-.056,1.983,1.983,0,0,0,.423-.145,2.814,2.814,0,0,0,.326-.185l.278-.185a1.451,1.451,0,0,1,.278-.145.906.906,0,0,1,.33-.056.489.489,0,0,1,.234.06.758.758,0,0,1,.2.157l.644.749a8.8,8.8,0,0,1-.866.753,4.73,4.73,0,0,1-.87.524,4.138,4.138,0,0,1-.951.3,5.845,5.845,0,0,1-1.1.1,3.562,3.562,0,0,1-1.361-.254,3.088,3.088,0,0,1-1.067-.717,3.213,3.213,0,0,1-.693-1.116,4.084,4.084,0,0,1-.246-1.45,5.7,5.7,0,0,1,.149-1.305,5.5,5.5,0,0,1,.427-1.2,5,5,0,0,1,.681-1.031,4.458,4.458,0,0,1,.906-.81,4.268,4.268,0,0,1,1.1-.528,4.223,4.223,0,0,1,1.277-.189,3.393,3.393,0,0,1,1.188.193,2.793,2.793,0,0,1,.874.5,2.178,2.178,0,0,1,.54.7A1.777,1.777,0,0,1,793.313,50.972Zm-2.932-.483a1.451,1.451,0,0,0-1.088.5,3.136,3.136,0,0,0-.7,1.357,11.675,11.675,0,0,0,1.265-.254,3.156,3.156,0,0,0,.749-.29.9.9,0,0,0,.358-.338.848.848,0,0,0,.093-.391.593.593,0,0,0-.161-.395A.649.649,0,0,0,790.381,50.489Z" transform="translate(-758.539 -45.213)" fill="#0073b6"/>
          </g>
          <path d="M847.641,42.376a.991.991,0,1,1-.991.991A.99.99,0,0,1,847.641,42.376Zm.747.99a.748.748,0,1,0-.747.777.761.761,0,0,0,.747-.777Zm-.809.088h-.168v.478h-.2V42.8h.44c.28,0,.424.1.424.326a.308.308,0,0,1-.291.32l.31.486h-.23Zm.035-.165c.141,0,.267-.014.267-.171,0-.131-.139-.152-.251-.152h-.218v.323Z" transform="translate(-731.654 -39.661)" fill="#0073b6"/>
        </g>
        <g id="Group_1321" data-name="Group 1321">
          <path d="M61.1,31.494a1.042,1.042,0,0,1-.248-.031.988.988,0,0,1-.746-.95L61.492,19.6,0,19.576l.086-.7a1.459,1.459,0,0,1,1.449-1.282l61.346.032a1,1,0,0,1,.99,1.141l-.782,6.129L76.223.649A1.248,1.248,0,0,1,77.293,0a1.024,1.024,0,0,1,.237.029.992.992,0,0,1,.757.937L76.23,17.628h2.283L78.275,19.6H74.828a1,1,0,0,1-.993-.961L75.234,6.8,62.1,30.962A1.185,1.185,0,0,1,61.1,31.494Z" fill="#fa8807"/>
          <path d="M644.417,129.173l-.075.616a1.556,1.556,0,0,1-1.545,1.368l-28.484-.021.243-1.986Z" transform="translate(-530.464 -111.522)" fill="#fa8807"/>
          <path d="M546.13,12.911l3.053-5.831-1.491,12.082-2.362.523Z" transform="translate(-470.897 -6.114)" fill="url(#linear-gradient)"/>
          <path d="M455.951,157.514l-.991,6.07,4.787-8.807-1.669-1.191Z" transform="translate(-392.861 -132.623)" fill="url(#linear-gradient-2)"/>
        </g>
      </g>
    </g>
  </g>
</svg>
