<svg xmlns="http://www.w3.org/2000/svg" xmlns:xlink="http://www.w3.org/1999/xlink" width="106.5" height="106.5" viewBox="0 0 106.5 106.5">
  <defs>
    <linearGradient id="linear-gradient" x1="-0.018" y1="0.39" x2="1.061" y2="0.62" gradientUnits="objectBoundingBox">
      <stop offset="0" stop-color="#eb6513"/>
      <stop offset="1" stop-color="#fa890a"/>
    </linearGradient>
    <linearGradient id="linear-gradient-2" x1="-0.133" y1="0.776" x2="0.457" y2="0.412" xlink:href="#linear-gradient"/>
  </defs>
  <g id="Stacked_Circle" data-name="Stacked Circle" transform="translate(53.25 53.25)">
    <g id="Stacked_Circle-2" data-name="Stacked Circle" transform="translate(-53.25 -53.25)">
      <circle id="Ellipse_39" data-name="Ellipse 39" cx="53.25" cy="53.25" r="53.25" fill="#0074b6"/>
      <g id="Group_1333" data-name="Group 1333" transform="translate(8.962 27.054)">
        <g id="Group_1331" data-name="Group 1331" transform="translate(32.114)">
          <g id="Group_1328" data-name="Group 1328" transform="translate(4.873)">
            <path id="Path_130" data-name="Path 130" d="M246.1,161.48l2.016-16.58h3.435l-.8,6.591a5.321,5.321,0,0,1,1.662-1.27,4.22,4.22,0,0,1,1.811-.411,3.025,3.025,0,0,1,1.195.224,2.52,2.52,0,0,1,.934.672,3.267,3.267,0,0,1,.616,1.1,4.686,4.686,0,0,1,.224,1.512q0,.205-.019.411l-.037.429-.859,7.3H252.8l.859-7.3q.019-.168.037-.317a2.264,2.264,0,0,0,.019-.28,1.234,1.234,0,0,0-.205-.822.8.8,0,0,0-.635-.224,1.512,1.512,0,0,0-.728.205,2.876,2.876,0,0,0-.728.579,4.947,4.947,0,0,0-.653.915,5.731,5.731,0,0,0-.5,1.176l-.747,6.087Z" transform="translate(-246.1 -144.9)" fill="#fff"/>
            <path id="Path_131" data-name="Path 131" d="M312.572,183.218a4.985,4.985,0,0,1-1.792-.317,4.108,4.108,0,0,1-1.456-.934,4.313,4.313,0,0,1-.971-1.512,5.733,5.733,0,0,1-.355-2.072,7.581,7.581,0,0,1,.5-2.8,7.058,7.058,0,0,1,1.363-2.2,6.18,6.18,0,0,1,1.979-1.456,5.564,5.564,0,0,1,2.371-.523,4.929,4.929,0,0,1,1.792.317,4.126,4.126,0,0,1,1.438.934,4.369,4.369,0,0,1,.971,1.512,5.658,5.658,0,0,1,.355,2.072,7.525,7.525,0,0,1-.5,2.782,7.132,7.132,0,0,1-1.363,2.222,6.218,6.218,0,0,1-1.979,1.456A5.508,5.508,0,0,1,312.572,183.218Zm.317-2.539a1.643,1.643,0,0,0,1.027-.355,2.819,2.819,0,0,0,.766-.952,5.506,5.506,0,0,0,.485-1.4,8.157,8.157,0,0,0,.168-1.718,3.558,3.558,0,0,0-.336-1.792,1.2,1.2,0,0,0-1.1-.541,1.643,1.643,0,0,0-1.027.355,2.838,2.838,0,0,0-.766.952,5.415,5.415,0,0,0-.485,1.4,8.252,8.252,0,0,0-.168,1.718,3.509,3.509,0,0,0,.336,1.774,1.2,1.2,0,0,0,1.1.541Z" transform="translate(-296.44 -166.451)" fill="#fff"/>
            <path id="Path_132" data-name="Path 132" d="M366.7,182.945l1.4-11.483h1.774a1.251,1.251,0,0,1,.822.243,1,1,0,0,1,.3.822v.672a5.34,5.34,0,0,1,1.531-1.438,3.323,3.323,0,0,1,1.7-.467,2.2,2.2,0,0,1,1.624.635,3.212,3.212,0,0,1,.822,1.83,5.676,5.676,0,0,1,1.68-1.867,3.641,3.641,0,0,1,2.054-.6,2.912,2.912,0,0,1,1.176.224,2.39,2.39,0,0,1,.9.672,3.174,3.174,0,0,1,.579,1.083,4.891,4.891,0,0,1,.205,1.475q0,.205-.019.429t-.037.467l-.859,7.3h-3.435l.859-7.3q.019-.187.037-.336a2.411,2.411,0,0,0,.019-.3,1.248,1.248,0,0,0-.187-.784.635.635,0,0,0-.523-.224,1.288,1.288,0,0,0-.653.187,2.2,2.2,0,0,0-.6.523,4.146,4.146,0,0,0-.523.84,7.492,7.492,0,0,0-.411,1.1l-.747,6.292h-3.379l.859-7.3q.019-.187.037-.336a2.4,2.4,0,0,0,.019-.3,1.356,1.356,0,0,0-.168-.784.635.635,0,0,0-.523-.224,1.288,1.288,0,0,0-.672.187,2.222,2.222,0,0,0-.6.541,4.2,4.2,0,0,0-.523.859,7.806,7.806,0,0,0-.411,1.12l-.747,6.236Z" transform="translate(-344.183 -166.365)" fill="#fff"/>
            <path id="Path_133" data-name="Path 133" d="M468.517,174.122a3.323,3.323,0,0,1-.317,1.438,2.894,2.894,0,0,1-1.083,1.158,7.318,7.318,0,0,1-2.072.859,20.65,20.65,0,0,1-3.267.56,2.525,2.525,0,0,0,.523,1.718,1.892,1.892,0,0,0,1.456.541,3.491,3.491,0,0,0,.784-.075,2.725,2.725,0,0,0,.579-.205l.448-.261.373-.261.373-.205a1.251,1.251,0,0,1,.448-.075.672.672,0,0,1,.317.075,1.045,1.045,0,0,1,.28.224l.878,1.027a12.065,12.065,0,0,1-1.195,1.027,6.5,6.5,0,0,1-1.195.728,5.675,5.675,0,0,1-1.307.411,8.027,8.027,0,0,1-1.512.131,4.892,4.892,0,0,1-1.867-.355,4.238,4.238,0,0,1-1.475-.99,4.425,4.425,0,0,1-.952-1.531,5.621,5.621,0,0,1-.336-2,7.843,7.843,0,0,1,.205-1.792,7.559,7.559,0,0,1,.579-1.643,6.87,6.87,0,0,1,.934-1.419,6.124,6.124,0,0,1,1.251-1.12,5.76,5.76,0,0,1,3.267-.99,4.668,4.668,0,0,1,1.624.261,3.828,3.828,0,0,1,1.195.691,2.987,2.987,0,0,1,.747.952A2.446,2.446,0,0,1,468.517,174.122Zm-4.033-.653a2,2,0,0,0-1.494.672,4.313,4.313,0,0,0-.971,1.867,16.025,16.025,0,0,0,1.736-.355,4.332,4.332,0,0,0,1.027-.392,1.232,1.232,0,0,0,.485-.467,1.157,1.157,0,0,0,.131-.541.821.821,0,0,0-.224-.541A.9.9,0,0,0,464.484,173.468Z" transform="translate(-418.759 -166.205)" fill="#fff"/>
          </g>
          <g id="Group_1329" data-name="Group 1329" transform="translate(0 34.429)">
            <path id="Path_134" data-name="Path 134" d="M220,378.509l1.83-15.124H223.6a1.27,1.27,0,0,1,.822.243,1,1,0,0,1,.3.822V365.5a6.554,6.554,0,0,1,1.755-1.68,3.79,3.79,0,0,1,2.054-.616,3.285,3.285,0,0,1,1.288.243,2.577,2.577,0,0,1,1.008.784,3.846,3.846,0,0,1,.672,1.363,7.133,7.133,0,0,1,.243,1.96,8.869,8.869,0,0,1-.467,2.857,8.439,8.439,0,0,1-1.232,2.39,6.218,6.218,0,0,1-1.792,1.624,4.089,4.089,0,0,1-2.128.6,3.342,3.342,0,0,1-1.288-.224,3.436,3.436,0,0,1-.99-.616l-.485,4.332Zm7.17-12.7a1.307,1.307,0,0,0-.747.28,3.454,3.454,0,0,0-.747.747,6.871,6.871,0,0,0-.672,1.1,8.106,8.106,0,0,0-.523,1.344l-.336,2.763a2.017,2.017,0,0,0,.709.373,2.766,2.766,0,0,0,.747.112,1.736,1.736,0,0,0,1.12-.411,3.51,3.51,0,0,0,.878-1.046,5.844,5.844,0,0,0,.579-1.475,7.059,7.059,0,0,0,.205-1.7,3,3,0,0,0-.317-1.587.971.971,0,0,0-.878-.5Z" transform="translate(-220 -356.869)" fill="#fff"/>
            <path id="Path_135" data-name="Path 135" d="M289.768,364.119l-.859,7.282q-.019.168-.037.317a2.259,2.259,0,0,0-.019.28,1.28,1.28,0,0,0,.205.822.784.784,0,0,0,.616.224,1.531,1.531,0,0,0,.728-.205,2.969,2.969,0,0,0,.728-.579,4.63,4.63,0,0,0,.653-.9,5.768,5.768,0,0,0,.5-1.176l.747-6.087h3.435l-1.4,11.483h-1.755q-1.214,0-1.214-1.12v-.728a5.713,5.713,0,0,1-1.774,1.531,4.219,4.219,0,0,1-1.979.5,2.931,2.931,0,0,1-1.176-.224,2.6,2.6,0,0,1-.934-.672,3.137,3.137,0,0,1-.616-1.1,4.856,4.856,0,0,1-.224-1.512q0-.205.019-.411c.019-.149.019-.28.037-.429l.859-7.282Z" transform="translate(-273.188 -357.603)" fill="#fff"/>
            <path id="Path_136" data-name="Path 136" d="M346.2,347.3l2.185-18h3.379l-2.185,18Z" transform="translate(-322.637 -329.3)" fill="#fff"/>
            <path id="Path_137" data-name="Path 137" d="M378.677,365.872a1.325,1.325,0,0,1-.28.28.635.635,0,0,1-.355.093,1.027,1.027,0,0,1-.429-.093l-.467-.224-.56-.224a2.409,2.409,0,0,0-.728-.093,1.565,1.565,0,0,0-1.083.3.971.971,0,0,0-.317.766.747.747,0,0,0,.187.5,1.775,1.775,0,0,0,.485.373,4.672,4.672,0,0,0,.672.3l.784.317a7.354,7.354,0,0,1,.784.392,2.93,2.93,0,0,1,.672.541,2.519,2.519,0,0,1,.485.766,2.744,2.744,0,0,1,.187,1.046,3.977,3.977,0,0,1-.336,1.624,3.9,3.9,0,0,1-.99,1.344,4.836,4.836,0,0,1-1.55.915,5.881,5.881,0,0,1-2.054.336,5.249,5.249,0,0,1-1.083-.112,5.957,5.957,0,0,1-1.008-.3,4.593,4.593,0,0,1-.859-.448,2.855,2.855,0,0,1-.635-.56l.84-1.27a1.233,1.233,0,0,1,.355-.355.934.934,0,0,1,.5-.131.841.841,0,0,1,.467.131l.429.28a3.212,3.212,0,0,0,.56.28,2.24,2.24,0,0,0,.84.131,1.585,1.585,0,0,0,1.083-.317,1.008,1.008,0,0,0,.355-.766.859.859,0,0,0-.187-.56,1.588,1.588,0,0,0-.485-.373,4.456,4.456,0,0,0-.672-.28l-.784-.28a6.632,6.632,0,0,1-.784-.355,2.764,2.764,0,0,1-.672-.523,2.352,2.352,0,0,1-.485-.766,2.931,2.931,0,0,1-.187-1.1,4.221,4.221,0,0,1,.3-1.55,3.828,3.828,0,0,1,.878-1.326,4.351,4.351,0,0,1,1.438-.934,5.284,5.284,0,0,1,2.016-.355,5.042,5.042,0,0,1,2.054.392,4.966,4.966,0,0,1,1.494.971Z" transform="translate(-342.156 -356.947)" fill="#fff"/>
            <path id="Path_138" data-name="Path 138" d="M427.717,366.284a3.324,3.324,0,0,1-.317,1.438,2.913,2.913,0,0,1-1.083,1.158,7.338,7.338,0,0,1-2.072.859,20.617,20.617,0,0,1-3.267.56,2.525,2.525,0,0,0,.523,1.718,1.893,1.893,0,0,0,1.456.541,3.493,3.493,0,0,0,.784-.075,2.726,2.726,0,0,0,.579-.205l.448-.261.373-.261.373-.205a1.25,1.25,0,0,1,.448-.075.672.672,0,0,1,.317.075,1.047,1.047,0,0,1,.28.224l.878,1.027a12.063,12.063,0,0,1-1.195,1.027,6.5,6.5,0,0,1-1.195.728,5.675,5.675,0,0,1-1.307.411,8.012,8.012,0,0,1-1.512.131,4.892,4.892,0,0,1-1.867-.355,4.239,4.239,0,0,1-1.475-.99,4.425,4.425,0,0,1-.952-1.531,5.62,5.62,0,0,1-.336-2,7.84,7.84,0,0,1,.261-1.755,7.56,7.56,0,0,1,.579-1.643,6.872,6.872,0,0,1,.934-1.419,6.124,6.124,0,0,1,1.251-1.12,5.76,5.76,0,0,1,3.267-.99,4.668,4.668,0,0,1,1.624.261,3.828,3.828,0,0,1,1.195.691,2.988,2.988,0,0,1,.747.952A2.446,2.446,0,0,1,427.717,366.284Zm-4.033-.672a2,2,0,0,0-1.494.672,4.313,4.313,0,0,0-.971,1.867,16.026,16.026,0,0,0,1.736-.355,4.351,4.351,0,0,0,1.027-.392,1.232,1.232,0,0,0,.485-.467,1.158,1.158,0,0,0,.131-.541.822.822,0,0,0-.224-.541.9.9,0,0,0-.672-.224Z" transform="translate(-380.703 -356.949)" fill="#fff"/>
          </g>
          <path id="Path_139" data-name="Path 139" d="M482.763,355.2a1.363,1.363,0,1,1-1.363,1.363A1.363,1.363,0,0,1,482.763,355.2Zm1.027,1.363a1.027,1.027,0,1,0-1.027,1.064,1.046,1.046,0,0,0,1.027-1.083Zm-1.1.112h-.243v.654h-.261v-1.55h.6c.392,0,.579.131.579.448a.429.429,0,0,1-.392.429l.429.672h-.317Zm.056-.224c.187,0,.373-.019.373-.243s-.187-.205-.336-.205h-.336v.448Z" transform="translate(-432.594 -315.935)" fill="#fff"/>
          <g id="Group_1330" data-name="Group 1330" transform="translate(3.043 19.865)">
            <path id="Path_140" data-name="Path 140" d="M244.215,262.28a4.948,4.948,0,0,1-1.046.672,4.8,4.8,0,0,1-1.158.373,7.285,7.285,0,0,1-1.344.112,4.575,4.575,0,0,1-1.811-.336,3.846,3.846,0,0,1-1.363-.971,4.351,4.351,0,0,1-.878-1.512,6.105,6.105,0,0,1-.317-2,7.692,7.692,0,0,1,.448-2.651,6.964,6.964,0,0,1,1.27-2.2,6.162,6.162,0,0,1,1.942-1.512,5.49,5.49,0,0,1,2.465-.56,4.537,4.537,0,0,1,1.96.392,4.108,4.108,0,0,1,1.475,1.232l-1.1,1.27-.28.224a.653.653,0,0,1-.336.093.672.672,0,0,1-.373-.093l-.317-.205-.429-.205a1.942,1.942,0,0,0-.653-.093,1.867,1.867,0,0,0-.99.3,2.819,2.819,0,0,0-.859.84,4.612,4.612,0,0,0-.6,1.363,6.779,6.779,0,0,0-.224,1.83,3.36,3.36,0,0,0,.131.99,2.053,2.053,0,0,0,.355.71,1.531,1.531,0,0,0,.541.429,1.55,1.55,0,0,0,.654.149,2.072,2.072,0,0,0,.859-.149,3.307,3.307,0,0,0,.56-.317l.448-.317a.859.859,0,0,1,.5-.149.747.747,0,0,1,.317.075.8.8,0,0,1,.261.205l.878,1.027A10.417,10.417,0,0,1,244.215,262.28Z" transform="translate(-236.299 -251.618)" fill="#fff"/>
            <path id="Path_141" data-name="Path 141" d="M294.473,263.174h-1.83a1.493,1.493,0,0,1-.541-.075.859.859,0,0,1-.336-.224.8.8,0,0,1-.168-.336,1.773,1.773,0,0,1-.056-.429v-.822a5.881,5.881,0,0,1-1.568,1.512,3.435,3.435,0,0,1-1.9.56,2.968,2.968,0,0,1-1.195-.243,2.837,2.837,0,0,1-1.008-.747,3.734,3.734,0,0,1-.71-1.27,5.712,5.712,0,0,1-.261-1.83,7.748,7.748,0,0,1,.56-2.95,7.524,7.524,0,0,1,1.587-2.446,7.636,7.636,0,0,1,2.427-1.662,7.543,7.543,0,0,1,3.081-.616,12.694,12.694,0,0,1,1.662.112,8.218,8.218,0,0,1,1.662.392Zm-5.023-2.521a1.158,1.158,0,0,0,.728-.28,3.174,3.174,0,0,0,.672-.766,6.8,6.8,0,0,0,.579-1.139,10.6,10.6,0,0,0,.448-1.382l.392-3.155h-.205a3.137,3.137,0,0,0-1.531.373,3.734,3.734,0,0,0-1.176,1.027,4.817,4.817,0,0,0-.766,1.494,6.012,6.012,0,0,0-.261,1.83,4.257,4.257,0,0,0,.093.934,2.017,2.017,0,0,0,.243.616.952.952,0,0,0,.355.355A.915.915,0,0,0,289.451,260.653Z" transform="translate(-275.82 -251.541)" fill="#fff"/>
            <path id="Path_142" data-name="Path 142" d="M345.4,263.5l1.382-11.427h1.755a1.251,1.251,0,0,1,.822.243.977.977,0,0,1,.3.8v1.307a6.254,6.254,0,0,1,1.438-1.792A2.5,2.5,0,0,1,352.7,252a2.166,2.166,0,0,1,.915.205L353,255.361a2.708,2.708,0,0,0-1.064-.243,1.982,1.982,0,0,0-1.512.766,5.715,5.715,0,0,0-1.064,2.465l-.616,5.135Z" transform="translate(-325.03 -251.869)" fill="#fff"/>
            <path id="Path_143" data-name="Path 143" d="M395.162,254.321a3.305,3.305,0,0,1-.317,1.438,2.894,2.894,0,0,1-1.083,1.158,7.282,7.282,0,0,1-2.054.859,20.561,20.561,0,0,1-3.249.56,2.514,2.514,0,0,0,.5,1.7,1.947,1.947,0,0,0,1.456.541,3.473,3.473,0,0,0,.784-.075,2.706,2.706,0,0,0,.579-.205l.448-.261.373-.261.373-.205a1.232,1.232,0,0,1,.448-.075.672.672,0,0,1,.317.075,1.045,1.045,0,0,1,.28.224l.878,1.027a12.025,12.025,0,0,1-1.176,1.027,6.482,6.482,0,0,1-1.195.71,5.659,5.659,0,0,1-1.307.411,7.994,7.994,0,0,1-1.512.131,4.873,4.873,0,0,1-1.867-.355,4.219,4.219,0,0,1-1.456-.99,4.406,4.406,0,0,1-.952-1.531,5.583,5.583,0,0,1-.336-1.979,7.8,7.8,0,0,1,.205-1.792,7.527,7.527,0,0,1,.579-1.643,6.853,6.853,0,0,1,.934-1.419,6.105,6.105,0,0,1,1.232-1.1,5.844,5.844,0,0,1,1.512-.728,5.77,5.77,0,0,1,1.755-.261,4.649,4.649,0,0,1,1.624.261,3.827,3.827,0,0,1,1.195.691,2.968,2.968,0,0,1,.747.952,2.427,2.427,0,0,1,.28,1.12Zm-4.014-.653a1.979,1.979,0,0,0-1.494.672,4.294,4.294,0,0,0-.952,1.848,15.985,15.985,0,0,0,1.736-.355,4.312,4.312,0,0,0,1.027-.392,1.232,1.232,0,0,0,.485-.467,1.158,1.158,0,0,0,.131-.541.8.8,0,0,0-.224-.541.9.9,0,0,0-.71-.243Z" transform="translate(-357.315 -251.296)" fill="#fff"/>
          </g>
        </g>
        <g id="Group_1332" data-name="Group 1332" transform="translate(0 0.037)">
          <path id="Path_144" data-name="Path 144" d="M103.192,179.529l-.429,3.548H75.5A1.624,1.624,0,0,1,73.9,181.49L77,156.4,56.159,196.912a1.606,1.606,0,0,1-1.438.859l-.392-.056a1.606,1.606,0,0,1-1.214-1.55l2.353-19.642L48,176.486l.336-1.718a2.221,2.221,0,0,1,2.483-1.867H57.6c.9,0,1.736.766,1.606,2.185l-1.624,12.491,21.08-41.618a1.606,1.606,0,0,1,1.419-.859l.373.056a1.606,1.606,0,0,1,1.232,1.55L77.65,179.529Z" transform="translate(-48 -145.1)" fill="#fa8807"/>
          <path id="Path_145" data-name="Path 145" d="M409.486,329.8l-.149,1.288a2.577,2.577,0,0,1-2.558,2.259H388.5l.429-3.548Z" transform="translate(-324.925 -295.315)" fill="#fa8807"/>
          <path id="Path_146" data-name="Path 146" d="M196.956,163.29l4.705-9.69-2.241,18.242L195.5,175.09Z" transform="translate(-167.96 -152.013)" fill="url(#linear-gradient)"/>
          <path id="Path_147" data-name="Path 147" d="M93.2,348.2l-1.4,9.279,6.74-13.107-2.5-1.774Z" transform="translate(-83.622 -305.725)" fill="url(#linear-gradient-2)"/>
        </g>
      </g>
    </g>
  </g>
</svg>
